<svg width="512" height="512" viewBox="0 0 512 512" fill="none" xmlns="http://www.w3.org/2000/svg">
<path fill-rule="evenodd" clip-rule="evenodd" d="M271.213 83.6397C265.587 89.2028 257.956 92.3281 250 92.3281C242.044 92.3281 234.413 89.2028 228.787 83.6397C223.161 78.0766 220 70.5314 220 62.664C220 54.7967 223.161 47.2515 228.787 41.6884C234.413 36.1253 242.044 33 250 33C257.956 33 265.587 36.1253 271.213 41.6884C276.839 47.2515 280 54.7967 280 62.664C280 63.3051 279.979 63.944 279.937 64.5799C328.537 90.0973 362.309 176.227 362.309 275.458C362.689 314.24 357.173 352.853 345.951 389.977C344.716 393.063 341.321 394.915 338.235 393.989C336.683 393.493 335.39 392.403 334.639 390.958C333.887 389.512 333.737 387.828 334.222 386.273C344.914 350.315 350.219 312.971 349.963 275.458C349.963 181.575 318.905 100.962 276.503 76.5644C275.117 79.1466 273.342 81.535 271.213 83.6397ZM237.626 74.8998C240.908 78.145 245.359 79.9681 250 79.9681C254.641 79.9681 259.092 78.145 262.374 74.8998C265.656 71.6547 267.5 67.2534 267.5 62.664C267.5 58.0747 265.656 53.6734 262.374 50.4283C259.092 47.1831 254.641 45.36 250 45.36C245.359 45.36 240.908 47.1831 237.626 50.4283C234.344 53.6734 232.5 58.0747 232.5 62.664C232.5 67.2534 234.344 71.6547 237.626 74.8998ZM238.198 293.536C242.984 296.594 248.788 297.686 254.375 296.577C257.146 295.991 259.773 294.869 262.105 293.278C264.437 291.687 266.429 289.656 267.968 287.303C269.506 284.95 270.56 282.32 271.07 279.563C271.579 276.807 271.534 273.979 270.938 271.239C269.665 265.747 266.275 260.963 261.489 257.904C256.704 254.845 250.9 253.754 245.312 254.862C239.758 256.121 234.919 259.473 231.826 264.205C228.733 268.937 227.629 274.676 228.75 280.2C230.023 285.693 233.412 290.477 238.198 293.536ZM157.679 401.089C178.358 458.502 212 494 249.963 494C277.741 494 303.049 475.171 323.111 441.834C324.963 439.056 324.037 435.043 320.951 433.5C318.173 431.648 314.16 432.574 312.617 435.661C294.716 465.602 272.802 481.653 249.963 481.653C218.481 481.653 188.543 450.168 169.407 396.768C169.132 395.991 168.705 395.278 168.15 394.669C167.595 394.06 166.924 393.569 166.176 393.224C165.428 392.879 164.619 392.687 163.795 392.659C162.972 392.632 162.152 392.769 161.383 393.063C160.606 393.339 159.893 393.766 159.284 394.321C158.676 394.876 158.185 395.548 157.839 396.296C157.494 397.043 157.302 397.853 157.275 398.676C157.247 399.499 157.385 400.32 157.679 401.089ZM462 383.803C462 375.944 458.878 368.407 453.322 362.85C447.765 357.293 440.229 354.17 432.37 354.17C424.512 354.17 416.976 357.293 411.419 362.85C405.862 368.407 402.741 375.944 402.741 383.803C402.741 389.051 404.133 394.155 406.712 398.622C363.685 422.067 279.578 408.218 199.7 362.201C166.579 343.487 136.542 319.772 110.647 291.891C109.536 290.719 108.01 290.03 106.396 289.972C104.783 289.915 103.211 290.493 102.02 291.583C100.848 292.695 100.16 294.222 100.102 295.837C100.045 297.452 100.622 299.024 101.711 300.217C128.389 328.982 159.366 353.429 193.537 372.685C278.189 421.48 368.068 435.694 415.255 407.992C420.226 411.51 426.199 413.436 432.37 413.436C440.229 413.436 447.765 410.314 453.322 404.757C458.878 399.199 462 391.662 462 383.803ZM415.086 383.803C415.086 387.984 416.601 392.008 419.325 395.143C419.955 395.553 420.508 396.086 420.943 396.739C420.961 396.765 420.978 396.791 420.995 396.817C424.134 399.563 428.174 401.089 432.37 401.089C436.954 401.089 441.351 399.268 444.592 396.026C447.833 392.784 449.654 388.388 449.654 383.803C449.654 379.219 447.833 374.822 444.592 371.58C441.351 368.339 436.954 366.517 432.37 366.517C427.786 366.517 423.39 368.339 420.149 371.58C416.907 374.822 415.086 379.219 415.086 383.803ZM66.6296 413.436C74.4879 413.436 82.0243 410.314 87.5809 404.757C93.1376 399.199 96.2593 391.662 96.2593 383.803C96.2593 375.944 93.1376 368.407 87.5809 362.85C82.0243 357.293 74.4879 354.17 66.6296 354.17C65.9105 354.17 65.194 354.197 64.4815 354.248C62.6279 305.158 117.393 236.722 200.133 188.894C233.32 169.48 269.267 155.218 306.744 146.598C307.535 146.416 308.283 146.08 308.945 145.609C309.606 145.138 310.168 144.541 310.599 143.853C311.029 143.165 311.32 142.399 311.454 141.598C311.587 140.798 311.562 139.979 311.379 139.188C310.452 136.101 307.362 133.94 303.963 134.557C265.292 143.397 228.195 158.077 193.953 178.088C105.987 228.78 48.0651 302.785 52.2087 357.917C49.8348 359.24 47.634 360.894 45.6783 362.85C40.1217 368.407 37 375.944 37 383.803C37 391.662 40.1217 399.199 45.6783 404.757C51.235 410.314 58.7714 413.436 66.6296 413.436ZM66.6296 366.517C65.037 366.517 63.4671 366.737 61.9603 367.16C61.3116 367.545 60.5951 367.818 59.8405 367.959C59.7882 367.965 59.7359 367.97 59.6836 367.975C57.7348 368.83 55.9421 370.046 54.408 371.58C51.1667 374.822 49.3457 379.219 49.3457 383.803C49.3457 388.388 51.1667 392.784 54.408 396.026C57.6494 399.268 62.0456 401.089 66.6296 401.089C71.2136 401.089 75.6099 399.268 78.8512 396.026C82.0926 392.784 83.9136 388.388 83.9136 383.803C83.9136 379.219 82.0926 374.822 78.8512 371.58C75.6099 368.339 71.2136 366.517 66.6296 366.517ZM60.4208 166.382C79.5254 133.694 126.979 121.976 187.066 133.078C190.455 133.694 192.304 136.778 191.688 140.17C191.072 143.562 187.99 145.721 184.601 145.104C129.136 134.928 86.6126 145.413 70.8976 172.55C59.4964 192.594 62.886 220.656 80.758 251.802C82.6068 254.578 81.6824 258.586 78.601 260.128C75.8278 261.979 71.822 261.053 70.2813 257.97C50.2523 223.432 46.2465 190.744 60.4208 166.382ZM439.62 166.357C458.47 199.082 444.874 246.01 405.32 292.628C404.248 293.846 402.739 294.593 401.12 294.708C399.501 294.824 397.902 294.298 396.667 293.246C395.449 292.174 394.701 290.667 394.585 289.05C394.47 287.433 394.995 285.835 396.049 284.601C432.513 241.687 444.874 199.7 429.114 172.531C417.68 152.772 392.341 141.658 357.113 141.349C353.714 141.349 350.933 138.571 350.933 135.175C350.933 131.779 353.714 129 357.113 129C396.049 129.617 425.715 142.275 439.62 166.357Z" fill="#47848F"/>
</svg>
