<svg width="300" height="300" viewBox="0 0 300 300" fill="none" xmlns="http://www.w3.org/2000/svg">
<path d="M117.5 207.5L60 150L117.5 92.5L100 75L25 150L100 225L117.5 207.5ZM182.5 207.5L240 150L182.5 92.5L200 75L275 150L200 225L182.5 207.5V207.5Z" fill="#199BC3"/>
<path d="M150 112.5C121.591 112.5 97.3295 128.05 87.5 150C97.3295 171.95 121.591 187.5 150 187.5C178.409 187.5 202.67 171.95 212.5 150C202.67 128.05 178.409 112.5 150 112.5ZM150 175C134.318 175 121.591 163.8 121.591 150C121.591 136.2 134.318 125 150 125C165.682 125 178.409 136.2 178.409 150C178.409 163.8 165.682 175 150 175ZM150 135C140.568 135 132.955 141.7 132.955 150C132.955 158.3 140.568 165 150 165C159.432 165 167.045 158.3 167.045 150C167.045 141.7 159.432 135 150 135Z" fill="#199BC3"/>
</svg>
