<svg width="24" height="24" viewBox="0 0 24 24" fill="none" xmlns="http://www.w3.org/2000/svg">
<path d="M11.4987 22C11.2121 22 10.9264 21.9265 10.6756 21.7839L8.0545 20.264C7.66349 20.0496 7.85453 19.9735 7.98309 19.9289C8.50533 19.7513 8.61067 19.7101 9.16863 19.4004C9.22666 19.368 9.30343 19.3803 9.36325 19.4153L11.3772 20.5869C11.4505 20.6263 11.5531 20.6263 11.6201 20.5869L19.4716 16.1454C19.5448 16.1043 19.5913 16.0221 19.5913 15.9372V7.05603C19.5913 6.96941 19.544 6.88803 19.469 6.84428L11.621 2.40633C11.5487 2.3652 11.4522 2.3652 11.379 2.40633L3.53282 6.84516C3.45694 6.88803 3.40873 6.97203 3.40873 7.05603V15.9372C3.40873 16.0221 3.45694 16.1026 3.53282 16.1428L5.68341 17.3608C6.85021 17.933 7.56529 17.2593 7.56529 16.5821V7.81377C7.56529 7.68952 7.66706 7.5924 7.79383 7.5924H8.78922C8.91331 7.5924 9.01687 7.6904 9.01687 7.81377V16.5821C9.01687 18.1089 8.16877 18.9839 6.6922 18.9839C6.23869 18.9839 5.8807 18.9839 4.88352 18.5018L2.8231 17.3407C2.31424 17.0528 2 16.5138 2 15.9372V7.05603C2 6.47941 2.31513 5.94042 2.8231 5.65342L10.6747 1.20672C11.1719 0.931094 11.8316 0.931094 12.3244 1.20672L20.1751 5.65342C20.684 5.94129 21 6.47941 21 7.05603V15.9372C21 16.5138 20.684 17.0511 20.1751 17.3407L12.3244 21.7839C12.0745 21.9265 11.7897 22 11.4987 22ZM17.8379 13.244C17.8379 11.5815 16.6917 11.1387 14.2786 10.8264C11.8406 10.5105 11.5924 10.3469 11.5924 9.78775C11.5924 9.32576 11.8022 8.70889 13.6082 8.70889C15.2214 8.70889 15.8159 9.04926 16.0605 10.115C16.0819 10.2156 16.1757 10.2891 16.281 10.2891H17.2996C17.363 10.2891 17.4228 10.262 17.4657 10.2182C17.5085 10.171 17.5317 10.1106 17.5255 10.0467C17.3675 8.21102 16.123 7.35528 13.6082 7.35528C11.3692 7.35528 10.0337 8.28102 10.0337 9.83413C10.0337 11.5185 11.3621 11.984 13.5109 12.1922C16.0819 12.439 16.281 12.8073 16.281 13.3026C16.281 14.1627 15.5767 14.5293 13.9224 14.5293C11.845 14.5293 11.388 14.0183 11.2344 13.0051C11.2166 12.8966 11.1219 12.817 11.0086 12.817H9.99352C9.86764 12.817 9.76676 12.915 9.76676 13.0383C9.76676 14.3351 10.4863 15.8803 13.9224 15.8803C16.4114 15.8812 17.8379 14.9213 17.8379 13.244Z" fill="#339933"/>
</svg>
